# Vertices 125
v  0.0670 -0.0440 -0.0090
v  0.0200 -0.0440 -0.0100
v  0.0210 -0.0260 -0.0530
v  0.1340 -0.0230 0.0150
v  0.0670 -0.0440 -0.0090
v  0.1250 -0.0410 -0.0080
v  0.1520 -0.0210 0.0100
v  0.1660 0.0020 -0.0080
v  0.1590 0.0050 0.0100
v  0.1590 -0.0310 -0.0080
v  0.1550 0.0280 -0.0080
v  0.1470 0.0280 0.0080
v  0.1360 0.0040 0.0220
v  0.1850 0.0620 -0.0240
v  0.1790 0.0520 -0.0210
v  0.1660 0.0560 -0.0290
v  0.2170 0.0410 -0.0140
v  0.2150 0.0400 -0.0130
v  0.1490 0.0480 -0.0080
v  0.1480 0.0540 0.0090
v  0.1660 0.0560 0.0130
v  0.1840 0.0620 0.0080
v  0.1790 0.0520 0.0050
v  0.1690 0.0690 0.0180
v  0.2140 0.0400 -0.0010
v  0.2170 0.0410 -0.0010
v  0.2170 0.0430 -0.0020
v  0.1860 0.0660 0.0060
v  0.1860 0.0650 -0.0080
v  0.2190 0.0430 -0.0070
v  0.2180 0.0400 -0.0070
v  0.2160 0.0400 -0.0070
v  0.1790 0.0520 -0.0080
v  0.1730 0.0510 -0.0080
v  0.1480 0.0760 0.0180
v  0.1250 0.0580 0.0070
v  0.1280 0.0280 0.0070
v  0.1300 0.0820 0.0080
v  0.1190 0.0580 -0.0080
v  0.1250 0.0820 -0.0080
v  0.1540 0.0990 -0.0080
v  0.1220 0.0290 -0.0080
v  0.1200 0.0190 -0.0080
v  0.1010 0.0150 0.0250
v  0.1200 0.0190 -0.0080
v  0.0680 0.0390 -0.0090
v  0.1010 0.0150 0.0250
v  0.0680 0.0280 0.0310
v  0.0180 0.0460 -0.0030
v  0.0180 0.0460 -0.0030
v  0.0680 0.0390 -0.0090
v  0.0190 0.0380 -0.0100
v  -0.0290 0.0300 -0.0100
v  -0.0360 0.0320 -0.0080
v  -0.0360 0.0320 -0.0080
v  -0.0170 0.0300 0.0440
v  -0.0680 0.0320 0.0150
v  -0.0270 0.0060 0.0460
v  0.0240 -0.0010 0.0550
v  0.0200 0.0000 0.0430
v  0.0200 0.0190 0.0390
v  0.0620 0.0070 0.0530
v  0.1010 0.0150 0.0250
v  0.0680 0.0280 0.0310
v  0.0690 0.0000 0.0390
v  0.0690 0.0000 0.0390
v  0.0690 -0.0280 0.0360
v  0.0690 0.0000 0.0390
v  0.0200 0.0000 0.0430
v  0.0690 -0.0280 0.0360
v  0.0200 -0.0260 0.0340
v  -0.0230 -0.0200 0.0330
v  -0.0240 0.0110 0.0400
v  -0.0710 0.0130 0.0080
v  -0.0250 0.0250 0.0330
v  -0.0290 -0.0290 -0.0100
v  -0.0700 0.0060 -0.0100
v  -0.0710 0.0250 0.0090
v  -0.1250 0.0430 -0.0110
v  -0.0290 0.0300 -0.0100
v  -0.0700 0.0330 -0.0100
v  -0.0220 -0.0200 -0.0530
v  -0.0700 0.0250 -0.0300
v  -0.0700 0.0130 -0.0290
v  -0.0240 0.0250 -0.0530
v  -0.0230 0.0110 -0.0600
v  0.0210 -0.0000 -0.0620
v  0.0700 -0.0280 -0.0530
v  0.0700 -0.0000 -0.0570
v  0.0690 0.0280 -0.0490
v  0.0210 0.0190 -0.0580
v  0.0700 -0.0280 -0.0530
v  0.1350 -0.0230 -0.0320
v  0.1530 -0.0210 -0.0270
v  0.1600 0.0050 -0.0260
v  0.1360 0.0040 -0.0380
v  0.0700 -0.0000 -0.0570
v  0.1470 0.0280 -0.0240
v  0.1290 0.0280 -0.0240
v  0.1260 0.0580 -0.0240
v  0.1480 0.0540 -0.0260
v  0.1490 0.0760 -0.0340
v  0.1310 0.0820 -0.0250
v  0.1520 0.0940 -0.0290
v  0.1730 0.0830 -0.0280
v  0.1810 0.0830 -0.0080
v  0.1730 0.0830 0.0130
v  0.1520 0.0940 0.0130
v  0.1870 0.0660 -0.0220
v  0.2170 0.0430 -0.0130
v  0.1700 0.0690 -0.0340
v  0.0190 0.0460 -0.0160
v  -0.0350 0.0320 -0.0120
v  0.0690 0.0280 -0.0490
v  0.0190 0.0460 -0.0160
v  -0.0350 0.0320 -0.0120
v  -0.0150 0.0300 -0.0630
v  -0.0670 0.0320 -0.0360
v  -0.0260 0.0060 -0.0660
v  0.0250 -0.0010 -0.0740
v  0.0630 0.0070 -0.0710
v  0.1010 0.0150 -0.0420
v  0.1010 0.0150 -0.0420
v  0.0690 0.0280 -0.0490
v  0.1010 0.0150 -0.0420

# UVs 125
vt  0.0110 0.0100
vt  0.2140 0.0100
vt  0.2120 0.0850
vt  0.4000 0.4660
vt  0.7130 0.3770
vt  0.4710 0.3910
vt  0.3210 0.4740
vt  0.3040 0.5820
vt  0.3210 0.5910
vt  0.3040 0.4370
vt  0.3700 0.6870
vt  0.4030 0.6830
vt  0.4410 0.5750
vt  0.2650 0.8480
vt  0.2800 0.8050
vt  0.3390 0.8130
vt  0.1200 0.7820
vt  0.1240 0.7750
vt  0.4070 0.7700
vt  0.4150 0.7920
vt  0.3390 0.8130
vt  0.2650 0.8480
vt  0.2800 0.8050
vt  0.3320 0.8700
vt  0.1240 0.7750
vt  0.1200 0.7820
vt  0.1160 0.7880
vt  0.2580 0.8660
vt  0.2580 0.8660
vt  0.1160 0.7890
vt  0.1210 0.7810
vt  0.1250 0.7750
vt  0.2800 0.8050
vt  0.3080 0.7960
vt  0.4250 0.8880
vt  0.5360 0.7980
vt  0.4810 0.6700
vt  0.5290 0.9020
vt  0.5390 0.7930
vt  0.5300 0.8990
vt  0.4170 0.9800
vt  0.5100 0.6720
vt  0.5020 0.6680
vt  0.5720 0.6150
vt  0.9930 0.9460
vt  0.9930 0.7440
vt  0.8560 0.8730
vt  0.8330 0.7410
vt  0.9930 0.5450
vt  0.2210 0.3930
vt  0.0100 0.3640
vt  0.2180 0.3590
vt  0.4210 0.3240
vt  0.4520 0.3340
vt  0.9930 0.3280
vt  0.8110 0.3990
vt  0.9310 0.1970
vt  0.8030 0.3550
vt  0.7410 0.5600
vt  0.7900 0.5460
vt  0.8080 0.5460
vt  0.7470 0.7150
vt  0.5750 0.6280
vt  0.7090 0.6820
vt  0.7060 0.5630
vt  0.8010 0.7430
vt  0.7060 0.4440
vt  0.0040 0.1970
vt  0.2130 0.1980
vt  0.0040 0.0770
vt  0.2120 0.0850
vt  0.3960 0.1100
vt  0.4000 0.2450
vt  0.6020 0.2510
vt  0.4110 0.2880
vt  0.4230 0.0750
vt  0.6010 0.2510
vt  0.5990 0.2700
vt  0.8360 0.3940
vt  0.4230 0.3360
vt  0.6010 0.3160
vt  0.3960 0.1100
vt  0.5990 0.2700
vt  0.6020 0.2510
vt  0.4110 0.2880
vt  0.4000 0.2450
vt  0.2130 0.1980
vt  0.0040 0.0770
vt  0.0040 0.1970
vt  0.0070 0.3150
vt  0.2130 0.2790
vt  0.7060 0.4440
vt  0.4000 0.4660
vt  0.3210 0.4740
vt  0.3210 0.5910
vt  0.4410 0.5750
vt  0.7060 0.5630
vt  0.4030 0.6830
vt  0.4810 0.6700
vt  0.5360 0.7980
vt  0.4150 0.7920
vt  0.4250 0.8880
vt  0.5290 0.9020
vt  0.4210 0.9670
vt  0.3250 0.9320
vt  0.2910 0.9380
vt  0.3250 0.9320
vt  0.4210 0.9670
vt  0.2580 0.8660
vt  0.1160 0.7880
vt  0.3320 0.8700
vt  0.2210 0.3930
vt  0.4520 0.3340
vt  0.8320 0.7410
vt  0.9930 0.5450
vt  0.9930 0.3280
vt  0.8100 0.3990
vt  0.9300 0.1970
vt  0.8040 0.3550
vt  0.7430 0.5600
vt  0.7480 0.7150
vt  0.8560 0.8730
vt  0.5750 0.6280
vt  0.7090 0.6820
vt  0.5720 0.6150

# Normals 125
vn  0.0510 -0.9990 0.0000
vn  -0.1500 -0.9890 -0.0020
vn  -0.0500 -0.7520 -0.6580
vn  0.2150 -0.6960 0.6850
vn  0.0510 -0.9990 0.0000
vn  0.1700 -0.9850 -0.0030
vn  0.6050 -0.3580 0.7110
vn  1.0000 -0.0050 0.0180
vn  0.7590 0.1870 0.6240
vn  0.5830 -0.8130 0.0050
vn  0.9170 0.3990 0.0140
vn  0.6120 0.2930 0.7340
vn  0.1740 0.1940 0.9650
vn  0.3610 -0.1440 -0.9220
vn  0.0280 -0.8790 -0.4760
vn  0.1170 -0.7700 -0.6270
vn  0.6790 -0.4570 -0.5750
vn  -0.0650 -0.8800 -0.4710
vn  0.7720 -0.6360 0.0080
vn  0.0940 -0.3800 0.9200
vn  0.1030 -0.7700 0.6290
vn  0.3400 -0.1440 0.9290
vn  0.0180 -0.8790 0.4760
vn  0.2570 -0.1020 0.9610
vn  -0.0750 -0.8800 0.4700
vn  0.6660 -0.4570 0.5900
vn  0.6790 0.5470 0.4900
vn  0.7500 0.3970 0.5290
vn  0.7450 0.6670 0.0080
vn  0.9520 0.3070 0.0100
vn  0.7380 -0.6740 0.0080
vn  0.0900 -0.9960 0.0010
vn  -0.1610 -0.9870 -0.0020
vn  0.0330 -0.9990 0.0000
vn  -0.1590 0.0540 0.9860
vn  -0.6640 -0.0580 0.7450
vn  -0.5710 0.1000 0.8150
vn  -0.7050 0.4770 0.5250
vn  -0.9940 0.1100 -0.0110
vn  -0.7970 0.6040 -0.0090
vn  -0.0180 1.0000 -0.0000
vn  -1.0000 -0.0130 -0.0110
vn  -0.5090 0.8610 -0.0060
vn  0.3430 0.7160 0.6080
vn  -0.5090 0.8610 -0.0060
vn  0.2530 0.9670 0.0030
vn  0.3430 0.7160 0.6080
vn  0.1370 0.6900 0.7110
vn  -0.0630 0.9110 -0.4080
vn  -0.0630 0.9110 -0.4080
vn  0.2530 0.9670 0.0030
vn  -0.0960 0.9950 -0.0010
vn  -0.0520 0.9990 -0.0010
vn  -0.0770 0.9960 -0.0360
vn  -0.0770 0.9960 -0.0360
vn  -0.1080 0.7280 0.6770
vn  -0.2770 0.7950 0.5390
vn  -0.3140 0.2220 0.9230
vn  -0.0450 0.4800 0.8760
vn  0.0060 -0.0860 0.9960
vn  0.1020 0.2320 0.9670
vn  0.1360 0.6910 0.7100
vn  0.3430 0.7160 0.6080
vn  0.1370 0.6900 0.7110
vn  0.1870 0.1410 0.9720
vn  0.1870 0.1410 0.9720
vn  0.1390 -0.5070 0.8500
vn  0.1870 0.1410 0.9720
vn  0.0060 -0.0860 0.9960
vn  0.1390 -0.5070 0.8500
vn  -0.0640 -0.7520 0.6560
vn  -0.3470 -0.6440 0.6820
vn  -0.4260 -0.0350 0.9040
vn  -0.6210 -0.3740 0.6890
vn  -0.4370 0.5330 0.7240
vn  -0.5380 -0.8430 -0.0060
vn  -0.6010 -0.7990 -0.0070
vn  -0.1690 0.7060 0.6880
vn  -0.9950 0.0950 -0.0110
vn  -0.0520 0.9990 -0.0010
vn  0.1320 0.9910 0.0010
vn  -0.3320 -0.6440 -0.6890
vn  -0.1540 0.7060 -0.6910
vn  -0.6060 -0.3740 -0.7020
vn  -0.4210 0.5330 -0.7330
vn  -0.4070 -0.0350 -0.9130
vn  0.0280 -0.0860 -0.9960
vn  0.1590 -0.5080 -0.8470
vn  0.2080 0.1410 -0.9680
vn  0.1520 0.6900 -0.7080
vn  0.1230 0.2320 -0.9650
vn  0.1590 -0.5080 -0.8470
vn  0.2260 -0.6960 -0.6810
vn  0.6170 -0.3670 -0.6970
vn  0.7750 0.1870 -0.6040
vn  0.1930 0.1930 -0.9620
vn  0.2080 0.1410 -0.9680
vn  0.6260 0.2960 -0.7210
vn  -0.5540 0.1000 -0.8270
vn  -0.6480 -0.0580 -0.7590
vn  0.1140 -0.3800 -0.9180
vn  -0.1370 0.0540 -0.9890
vn  -0.6940 0.4770 -0.5400
vn  -0.0750 0.7270 -0.6820
vn  0.5090 0.5740 -0.6420
vn  0.8090 0.5880 0.0090
vn  0.4950 0.5740 0.6530
vn  -0.0900 0.7270 0.6810
vn  0.7610 0.3970 -0.5130
vn  0.6890 0.5470 -0.4750
vn  0.2780 -0.1020 -0.9550
vn  -0.0720 0.9110 0.4070
vn  -0.0780 0.9960 0.0340
vn  0.1520 0.6900 -0.7080
vn  -0.0720 0.9110 0.4070
vn  -0.0780 0.9960 0.0340
vn  -0.0930 0.7280 -0.6800
vn  -0.2660 0.7950 -0.5450
vn  -0.2940 0.2220 -0.9300
vn  -0.0260 0.4800 -0.8770
vn  0.1510 0.6910 -0.7070
vn  0.3560 0.7160 -0.6000
vn  0.3560 0.7160 -0.6000
vn  0.1520 0.6900 -0.7080
vn  0.3560 0.7160 -0.6000

# Faces 190
f  1/1/1 2/2/2 3/3/3
f  4/4/4 5/5/5 6/6/6
f  7/7/7 8/8/8 9/9/9
f  8/8/8 7/7/7 10/10/10
f  11/11/11 9/9/9 8/8/8
f  9/9/9 11/11/11 12/12/12
f  10/10/10 4/4/4 6/6/6
f  4/4/4 10/10/10 7/7/7
f  7/7/7 13/13/13 4/4/4
f  13/13/13 7/7/7 9/9/9
f  13/13/13 9/9/9 12/12/12
f  14/14/14 15/15/15 16/16/16
f  14/14/14 17/17/17 18/18/18
f  15/15/15 14/14/14 18/18/18
f  19/19/19 12/12/12 11/11/11
f  12/12/12 19/19/19 20/20/20
f  21/21/21 20/20/20 19/19/19
f  22/22/22 21/21/21 23/23/23
f  21/21/21 22/22/22 24/24/24
f  24/24/24 20/20/20 21/21/21
f  23/23/23 25/25/25 22/22/22
f  22/22/22 25/25/25 26/26/26
f  27/27/27 22/22/22 26/26/26
f  22/22/22 27/27/27 28/28/28
f  28/28/28 24/24/24 22/22/22
f  27/27/27 29/29/29 28/28/28
f  29/29/29 27/27/27 30/30/30
f  26/26/26 30/30/30 27/27/27
f  30/30/30 26/26/26 31/31/31
f  26/26/26 32/32/32 31/31/31
f  32/32/32 26/26/26 25/25/25
f  33/33/33 32/32/32 25/25/25
f  33/33/33 25/25/25 23/23/23
f  23/23/23 34/34/34 33/33/33
f  34/34/34 23/23/23 21/21/21
f  19/19/19 34/34/34 21/21/21
f  20/20/20 24/24/24 35/35/35
f  36/36/36 20/20/20 35/35/35
f  20/20/20 36/36/36 37/37/37
f  35/35/35 38/38/38 36/36/36
f  38/38/38 39/39/39 36/36/36
f  39/39/39 38/38/38 40/40/40
f  38/38/38 41/41/41 40/40/40
f  42/42/42 36/36/36 39/39/39
f  36/36/36 42/42/42 37/37/37
f  43/43/43 37/37/37 42/42/42
f  37/37/37 43/43/43 13/13/13
f  12/12/12 37/37/37 13/13/13
f  37/37/37 12/12/12 20/20/20
f  44/44/44 13/13/13 43/43/43
f  45/45/45 46/46/46 47/47/47
f  47/47/47 46/46/46 48/48/48
f  46/46/46 49/49/49 48/48/48
f  50/50/50 51/51/51 52/52/52
f  53/53/53 50/50/50 52/52/52
f  50/50/50 53/53/53 54/54/54
f  49/49/49 55/55/55 48/48/48
f  48/48/48 55/55/55 56/56/56
f  55/55/55 57/57/57 56/56/56
f  58/58/58 56/56/56 57/57/57
f  56/56/56 58/58/58 59/59/59
f  48/48/48 56/56/56 59/59/59
f  60/60/60 48/48/48 61/61/61
f  62/62/62 48/48/48 59/59/59
f  47/47/47 48/48/48 62/62/62
f  63/63/63 64/64/64 65/65/65
f  48/48/48 60/60/60 66/66/66
f  13/13/13 63/63/63 65/65/65
f  13/13/13 65/65/65 67/67/67
f  68/68/68 69/69/69 70/70/70
f  70/70/70 69/69/69 71/71/71
f  71/71/71 1/1/1 70/70/70
f  5/5/5 4/4/4 67/67/67
f  13/13/13 67/67/67 4/4/4
f  1/1/1 71/71/71 2/2/2
f  72/72/72 2/2/2 71/71/71
f  69/69/69 72/72/72 71/71/71
f  69/69/69 73/73/73 72/72/72
f  74/74/74 72/72/72 73/73/73
f  75/75/75 74/74/74 73/73/73
f  2/2/2 72/72/72 76/76/76
f  74/74/74 76/76/76 72/72/72
f  76/76/76 74/74/74 77/77/77
f  75/75/75 78/78/78 74/74/74
f  74/74/74 79/79/79 77/77/77
f  78/78/78 79/79/79 74/74/74
f  80/80/80 78/78/78 75/75/75
f  78/78/78 80/80/80 81/81/81
f  81/81/81 79/79/79 78/78/78
f  77/77/77 79/79/79 81/81/81
f  77/77/77 81/81/81 79/79/79
f  2/2/2 76/76/76 82/82/82
f  82/82/82 3/3/3 2/2/2
f  81/81/81 83/83/83 79/79/79
f  83/83/83 81/81/81 80/80/80
f  83/83/83 84/84/84 79/79/79
f  84/84/84 77/77/77 79/79/79
f  76/76/76 77/77/77 84/84/84
f  84/84/84 82/82/82 76/76/76
f  85/85/85 84/84/84 83/83/83
f  80/80/80 85/85/85 83/83/83
f  85/85/85 86/86/86 84/84/84
f  84/84/84 86/86/86 82/82/82
f  87/87/87 82/82/82 86/86/86
f  87/87/87 3/3/3 82/82/82
f  88/88/88 3/3/3 87/87/87
f  89/89/89 88/88/88 87/87/87
f  90/90/90 89/89/89 87/87/87
f  87/87/87 91/91/91 90/90/90
f  3/3/3 88/88/88 1/1/1
f  5/5/5 92/92/92 93/93/93
f  93/93/93 6/6/6 5/5/5
f  10/10/10 6/6/6 93/93/93
f  93/93/93 94/94/94 10/10/10
f  8/8/8 10/10/10 94/94/94
f  94/94/94 95/95/95 8/8/8
f  11/11/11 8/8/8 95/95/95
f  94/94/94 93/93/93 96/96/96
f  96/96/96 95/95/95 94/94/94
f  96/96/96 92/92/92 97/97/97
f  96/96/96 93/93/93 92/92/92
f  95/95/95 98/98/98 11/11/11
f  96/96/96 98/98/98 95/95/95
f  98/98/98 96/96/96 99/99/99
f  99/99/99 96/96/96 43/43/43
f  43/43/43 42/42/42 99/99/99
f  100/100/100 99/99/99 42/42/42
f  101/101/101 99/99/99 100/100/100
f  99/99/99 101/101/101 98/98/98
f  100/100/100 102/102/102 101/101/101
f  102/102/102 100/100/100 103/103/103
f  103/103/103 100/100/100 39/39/39
f  42/42/42 39/39/39 100/100/100
f  39/39/39 40/40/40 103/103/103
f  103/103/103 40/40/40 41/41/41
f  41/41/41 104/104/104 103/103/103
f  103/103/103 104/104/104 102/102/102
f  105/105/105 104/104/104 41/41/41
f  102/102/102 104/104/104 105/105/105
f  41/41/41 106/106/106 105/105/105
f  41/41/41 107/107/107 106/106/106
f  28/28/28 106/106/106 107/107/107
f  106/106/106 28/28/28 29/29/29
f  24/24/24 28/28/28 107/107/107
f  107/107/107 35/35/35 24/24/24
f  35/35/35 107/107/107 108/108/108
f  107/107/107 41/41/41 108/108/108
f  41/41/41 38/38/38 108/108/108
f  38/38/38 35/35/35 108/108/108
f  106/106/106 29/29/29 109/109/109
f  109/109/109 105/105/105 106/106/106
f  110/110/110 109/109/109 29/29/29
f  29/29/29 30/30/30 110/110/110
f  14/14/14 109/109/109 110/110/110
f  109/109/109 14/14/14 111/111/111
f  111/111/111 105/105/105 109/109/109
f  16/16/16 111/111/111 14/14/14
f  111/111/111 16/16/16 101/101/101
f  16/16/16 19/19/19 101/101/101
f  98/98/98 101/101/101 19/19/19
f  105/105/105 111/111/111 102/102/102
f  101/101/101 102/102/102 111/111/111
f  19/19/19 11/11/11 98/98/98
f  19/19/19 16/16/16 34/34/34
f  34/34/34 16/16/16 15/15/15
f  15/15/15 33/33/33 34/34/34
f  33/33/33 15/15/15 18/18/18
f  33/33/33 18/18/18 32/32/32
f  32/32/32 18/18/18 17/17/17
f  110/110/110 17/17/17 14/14/14
f  17/17/17 110/110/110 30/30/30
f  17/17/17 31/31/31 32/32/32
f  30/30/30 31/31/31 17/17/17
f  112/112/112 52/52/52 51/51/51
f  53/53/53 52/52/52 112/112/112
f  112/112/112 113/113/113 53/53/53
f  46/46/46 114/114/114 115/115/115
f  115/115/115 114/114/114 116/116/116
f  114/114/114 117/117/117 116/116/116
f  116/116/116 117/117/117 118/118/118
f  119/119/119 118/118/118 117/117/117
f  117/117/117 120/120/120 119/119/119
f  114/114/114 120/120/120 117/117/117
f  121/121/121 120/120/120 114/114/114
f  122/122/122 121/121/121 114/114/114
f  122/122/122 114/114/114 46/46/46
f  123/123/123 97/97/97 124/124/124
f  45/45/45 122/122/122 46/46/46
f  125/125/125 43/43/43 96/96/96
f  96/96/96 97/97/97 123/123/123
